<?xml version="1.0" encoding="utf-8"?>
<!-- Generator: Adobe Illustrator 15.0.0, SVG Export Plug-In . SVG Version: 6.00 Build 0)  -->
<!DOCTYPE svg PUBLIC "-//W3C//DTD SVG 1.1//EN" "http://www.w3.org/Graphics/SVG/1.1/DTD/svg11.dtd">
<svg version="1.1" id="Layer_1" xmlns="http://www.w3.org/2000/svg" xmlns:xlink="http://www.w3.org/1999/xlink" x="0px" y="0px"
	 width="640px" height="480px" viewBox="0 0 640 480" enable-background="new 0 0 640 480" xml:space="preserve">
<g>
	<path fill="#119CBC" stroke="#16A3C4" stroke-miterlimit="10" d="M73.304,195.853c-6.451,0-12.48,1.02-18.087,3.056
		c-5.608,2.038-10.476,5.08-14.602,9.126c-4.127,4.047-7.381,9.07-9.764,15.067c-2.382,5.999-3.573,12.987-3.573,20.964
		c0,7.921,1.103,14.795,3.312,20.62c2.208,5.826,5.344,10.647,9.413,14.464c4.066,3.818,8.962,6.645,14.685,8.48
		c5.723,1.838,12.099,2.756,19.129,2.756c1.917,0,3.951-0.1,6.101-0.302c2.149-0.2,4.312-0.487,6.492-0.861
		c2.179-0.372,4.299-0.803,6.363-1.291c2.062-0.487,3.907-1.019,5.534-1.593v12.397c-3.387,1.321-7.318,2.338-11.795,3.057
		c-4.477,0.717-9.07,1.076-13.775,1.076c-9.586,0-18.08-1.334-25.484-4.003c-7.404-2.67-13.618-6.501-18.64-11.494
		c-5.023-4.994-8.825-11.092-11.408-18.296c-2.583-7.202-3.875-15.368-3.875-24.494c0-8.954,1.363-17.189,4.089-24.709
		c2.726-7.519,6.658-13.976,11.795-19.372c5.136-5.395,11.365-9.6,18.683-12.613c7.318-3.014,15.541-4.521,24.667-4.521
		c2.411,0,4.792,0.101,7.146,0.302c2.353,0.202,4.606,0.488,6.759,0.861c2.152,0.374,4.146,0.818,5.983,1.334
		c1.836,0.517,3.415,1.062,4.735,1.636v12.398c-3.487-1.147-7.294-2.109-11.42-2.884C81.644,196.24,77.488,195.853,73.304,195.853z"
		/>
	<path fill="#119CBC" stroke="#16A3C4" stroke-miterlimit="10" d="M117.146,300.718V185.521h14.034v115.196H117.146z"/>
	<path fill="#FFB60F" d="M161.887,217.493c3.848-0.201,7.311-0.301,10.39-0.301h15.711v7.178h-38.8v-5.17
		c3.848-2.844,7.395-5.496,10.641-7.956c3.245-2.46,6.048-4.819,8.407-7.078c2.359-2.259,4.208-4.458,5.546-6.601
		c1.338-2.141,2.008-4.299,2.008-6.475c0-2.911-0.937-5.136-2.811-6.676c-1.874-1.539-4.567-2.309-8.081-2.309
		c-2.61,0.034-5.145,0.418-7.604,1.154c-2.459,0.736-4.994,1.707-7.604,2.911v-6.625c1.907-1.104,4.258-2.066,7.052-2.886
		c2.793-0.819,5.864-1.229,9.21-1.229c2.643,0,5.062,0.334,7.255,1.004c2.193,0.669,4.089,1.648,5.688,2.936
		c1.599,1.289,2.836,2.878,3.712,4.769c0.875,1.891,1.313,4.074,1.313,6.55c0,2.644-0.572,5.112-1.717,7.404
		c-1.145,2.292-2.709,4.492-4.693,6.6c-1.984,2.108-4.314,4.191-6.991,6.25c-2.677,2.058-5.555,4.175-8.633,6.35V217.493z"/>
	<path fill="#119CBC" stroke="#16A3C4" stroke-miterlimit="10" d="M212.03,216c0,3.387,0.686,6.185,2.06,8.394
		c1.374,2.21,3.219,4.033,5.539,5.467c2.318,1.435,5.008,2.612,8.07,3.53c3.062,0.919,6.252,1.78,9.573,2.583
		c4.463,1.091,8.857,2.296,13.178,3.616c4.321,1.321,8.171,3.143,11.547,5.467s6.11,5.353,8.199,9.083
		c2.089,3.731,3.135,8.523,3.135,14.378c0,5.971-1.131,11.121-3.394,15.454c-2.263,4.335-5.391,7.893-9.385,10.677
		s-8.717,4.851-14.169,6.198c-5.454,1.349-11.422,2.023-17.908,2.023c-2.985,0-6.042-0.187-9.169-0.56
		c-3.129-0.374-6.113-0.876-8.954-1.507s-5.411-1.348-7.706-2.152c-2.296-0.803-4.104-1.606-5.424-2.41v-12.829
		c2.066,1.033,4.391,1.98,6.974,2.842c2.583,0.86,5.252,1.593,8.007,2.195s5.539,1.076,8.352,1.421
		c2.812,0.344,5.452,0.517,7.92,0.517c4.017,0,7.848-0.345,11.494-1.033c3.644-0.689,6.845-1.837,9.6-3.444
		c2.755-1.606,4.936-3.802,6.543-6.586c1.606-2.783,2.411-6.271,2.411-10.461c0-3.444-0.704-6.285-2.109-8.523
		c-1.407-2.238-3.287-4.09-5.639-5.554c-2.354-1.463-5.066-2.653-8.136-3.572c-3.071-0.918-6.3-1.778-9.686-2.583
		c-4.477-1.033-8.854-2.196-13.129-3.487c-4.277-1.291-8.093-3.084-11.451-5.381c-3.358-2.295-6.057-5.252-8.093-8.868
		c-2.038-3.616-3.056-8.236-3.056-13.862c0-5.854,1.069-10.891,3.211-15.11c2.142-4.218,5.039-7.706,8.696-10.46
		c3.656-2.755,7.866-4.792,12.63-6.113c4.764-1.32,9.843-1.98,15.239-1.98c6.141,0,11.866,0.589,17.176,1.765
		c5.309,1.177,10.173,2.712,14.593,4.606v13c-4.765-2.009-9.686-3.645-14.765-4.908c-5.08-1.262-10.519-1.922-16.315-1.98
		c-4.363,0-8.151,0.473-11.365,1.42c-3.215,0.947-5.884,2.296-8.007,4.046c-2.124,1.751-3.702,3.875-4.735,6.371
		C212.546,210.188,212.03,212.958,212.03,216z"/>
</g>
<g>
	<path fill="#969696" d="M336.367,185.521v102.54h56.221v12.656h-70.254V185.521H336.367z"/>
	<path fill="#969696" d="M455.854,291.678h-0.346c-1.09,1.378-2.469,2.741-4.133,4.09s-3.588,2.555-5.768,3.615
		c-2.182,1.063-4.562,1.908-7.146,2.54c-2.582,0.631-5.338,0.947-8.266,0.947c-3.959,0-7.59-0.589-10.891-1.765
		s-6.143-2.897-8.523-5.166c-2.383-2.267-4.232-5.037-5.553-8.309c-1.322-3.271-1.98-6.974-1.98-11.106
		c0-4.074,0.732-7.719,2.195-10.934c1.463-3.214,3.516-5.94,6.156-8.18c2.639-2.238,5.811-3.96,9.514-5.165
		c3.701-1.206,7.791-1.809,12.268-1.809c4.248,0.058,8.18,0.431,11.795,1.119c3.617,0.689,6.83,1.55,9.645,2.583h0.344v-5.683
		c0-2.238-0.145-4.219-0.432-5.939c-0.287-1.723-0.773-3.243-1.463-4.564c-1.492-2.755-3.875-5.037-7.146-6.844
		c-3.271-1.808-7.691-2.712-13.258-2.712c-4.133,0-8.021,0.388-11.666,1.163c-3.646,0.775-7.275,1.851-10.891,3.229v-11.192
		c1.377-0.689,2.998-1.334,4.863-1.938c1.865-0.603,3.832-1.119,5.898-1.55c2.066-0.43,4.246-0.76,6.543-0.99
		c2.295-0.229,4.592-0.345,6.887-0.345c8.266,0,15.025,1.464,20.277,4.391c5.25,2.927,9.023,6.802,11.32,11.623
		c0.861,1.837,1.477,3.861,1.852,6.07c0.373,2.21,0.559,4.636,0.559,7.275v54.585h-11.191L455.854,291.678z M455.164,264.815
		c-2.457-0.688-5.371-1.348-8.742-1.979c-3.371-0.631-7.084-0.976-11.143-1.033c-5.656,0-10.084,1.205-13.283,3.615
		c-3.201,2.411-4.801,6.113-4.801,11.106c0,2.526,0.4,4.735,1.199,6.63c0.801,1.894,1.9,3.459,3.301,4.692
		c1.398,1.234,3.057,2.152,4.971,2.755c1.912,0.603,3.957,0.904,6.127,0.904c2.857,0,5.516-0.416,7.971-1.249
		c2.457-0.831,4.643-1.821,6.557-2.97c1.916-1.147,3.545-2.295,4.887-3.444c1.342-1.147,2.328-2.036,2.957-2.669V264.815z"/>
	<path fill="#969696" d="M563.283,258.444c0,7.635-1.033,14.235-3.1,19.803s-4.793,10.174-8.18,13.818
		c-3.387,3.646-7.262,6.357-11.623,8.136s-8.867,2.669-13.516,2.669c-3.502,0-6.586-0.445-9.256-1.334
		c-2.668-0.89-4.938-1.951-6.801-3.186c-1.867-1.234-3.359-2.482-4.479-3.746c-1.119-1.262-1.908-2.267-2.367-3.013h-0.258
		l-2.842,9.126h-10.072V176.051h13.344v50.538h0.26c2.926-3.099,6.34-5.51,10.244-7.232c3.902-1.722,8.352-2.583,13.346-2.583
		c2.295,0,4.777,0.258,7.447,0.775c2.668,0.517,5.309,1.407,7.92,2.669c2.611,1.263,5.123,2.927,7.533,4.994
		c2.412,2.066,4.535,4.636,6.371,7.706c1.838,3.071,3.301,6.716,4.393,10.935C562.736,248.07,563.283,252.935,563.283,258.444z
		 M549.336,259.478c0-6.485-0.762-11.752-2.281-15.798c-1.521-4.047-3.475-7.203-5.855-9.471c-2.383-2.267-4.922-3.831-7.619-4.692
		c-2.699-0.861-5.396-1.292-8.094-1.292c-4.131,0-8.021,0.861-11.666,2.583c-3.645,1.722-6.873,3.96-9.686,6.716v42.79
		c0.805,1.091,1.852,2.281,3.143,3.572c1.291,1.292,2.826,2.497,4.607,3.616c1.777,1.119,3.773,2.066,5.982,2.841
		c2.209,0.775,4.635,1.163,7.275,1.163c3.961,0,7.447-0.775,10.461-2.325s5.539-3.745,7.576-6.586
		c2.037-2.842,3.572-6.228,4.605-10.159C548.818,268.505,549.336,264.185,549.336,259.478z"/>
	<path fill="#969696" d="M589.525,240.709c0,2.238,0.477,4.076,1.43,5.51c0.953,1.436,2.23,2.598,3.83,3.487
		c1.6,0.891,3.451,1.622,5.557,2.195c2.104,0.574,4.279,1.091,6.523,1.55c3.086,0.688,6.004,1.45,8.754,2.281
		c2.75,0.833,5.289,2.081,7.617,3.745c2.33,1.666,4.209,3.918,5.641,6.759s2.146,6.53,2.146,11.063c0,4.133-0.805,7.792-2.41,10.978
		c-1.607,3.186-3.875,5.854-6.803,8.007c-2.926,2.152-6.428,3.788-10.504,4.907c-4.074,1.119-8.553,1.679-13.43,1.679
		c-2.986,0-5.697-0.158-8.137-0.474c-2.439-0.316-4.592-0.718-6.457-1.205s-3.459-0.99-4.777-1.507
		c-1.322-0.517-2.412-1.004-3.273-1.464v-11.192c3.381,1.378,6.734,2.469,10.059,3.271c3.326,0.805,6.99,1.206,10.99,1.206
		c3.156,0,6.002-0.287,8.537-0.861c2.535-0.573,4.719-1.421,6.551-2.54s3.24-2.524,4.227-4.219c0.986-1.692,1.48-3.659,1.48-5.897
		c0-2.295-0.451-4.189-1.352-5.683c-0.902-1.491-2.113-2.725-3.635-3.702c-1.521-0.975-3.283-1.778-5.283-2.41
		c-2-0.631-4.1-1.205-6.297-1.722c-2.873-0.631-5.789-1.378-8.748-2.239c-2.957-0.86-5.648-2.065-8.07-3.615
		c-2.424-1.55-4.381-3.659-5.873-6.328c-1.494-2.669-2.24-6.098-2.24-10.289c0-4.305,0.775-8.035,2.324-11.192
		c1.549-3.156,3.645-5.768,6.285-7.834c2.639-2.066,5.711-3.616,9.213-4.649c3.5-1.033,7.201-1.55,11.105-1.55
		c4.533,0,8.738,0.431,12.613,1.292c3.875,0.861,7.389,1.952,10.547,3.272v11.365c-3.361-1.32-6.764-2.396-10.207-3.229
		c-3.445-0.831-6.986-1.276-10.627-1.334c-3.08,0-5.713,0.316-7.898,0.947c-2.184,0.632-3.977,1.507-5.377,2.626
		s-2.422,2.44-3.066,3.96C589.848,237.194,589.525,238.873,589.525,240.709z"/>
</g>
</svg>
