<?xml version="1.0" encoding="utf-8"?>
<!-- Generator: Adobe Illustrator 15.0.0, SVG Export Plug-In . SVG Version: 6.00 Build 0)  -->
<!DOCTYPE svg PUBLIC "-//W3C//DTD SVG 1.1//EN" "http://www.w3.org/Graphics/SVG/1.1/DTD/svg11.dtd">
<svg version="1.1" id="Capa_1" xmlns="http://www.w3.org/2000/svg" xmlns:xlink="http://www.w3.org/1999/xlink" x="0px" y="0px"
	 width="125.077px" height="168.769px" viewBox="0 0 125.077 168.769" enable-background="new 0 0 125.077 168.769"
	 xml:space="preserve">
<line fill="none" stroke="#002148" stroke-width="2" stroke-miterlimit="10" x1="31.378" y1="39.234" x2="45.817" y2="53.676"/>
<line fill="none" stroke="#002148" stroke-width="2" stroke-miterlimit="10" x1="31.378" y1="39.234" x2="16.935" y2="53.676"/>
<line fill="none" stroke="#002148" stroke-width="2" stroke-miterlimit="10" x1="31.294" y1="38.676" x2="31.294" y2="80.895"/>
<g>
	<polyline fill="none" stroke="#002148" stroke-miterlimit="10" points="89.89,162.977 89.89,7.007 31.376,7.007 31.376,20.043 	"/>
	<line fill="none" stroke="#002148" stroke-miterlimit="10" x1="70.51" y1="162.977" x2="109.271" y2="162.977"/>
</g>
<g>
	<circle fill="none" stroke="#011D4D" stroke-width="2" stroke-miterlimit="10" cx="31.378" cy="29.355" r="9.607"/>
	<g>
		<g>
			<line fill="none" stroke="#011D4D" stroke-width="2" stroke-miterlimit="10" x1="29.272" y1="25.842" x2="26.03" y2="29.085"/>
			<line fill="none" stroke="#011D4D" stroke-width="2" stroke-miterlimit="10" x1="26.03" y1="25.842" x2="29.272" y2="29.085"/>
		</g>
		<g>
			<line fill="none" stroke="#011D4D" stroke-width="2" stroke-miterlimit="10" x1="36.727" y1="25.842" x2="33.484" y2="29.085"/>
			<line fill="none" stroke="#011D4D" stroke-width="2" stroke-miterlimit="10" x1="33.484" y1="25.842" x2="36.727" y2="29.085"/>
		</g>
		<polyline fill="none" stroke="#011D4D" stroke-width="2" stroke-miterlimit="10" points="35.495,34.193 34.142,35.055 
			32.684,34.193 31.217,34.951 29.809,34.193 28.476,35.055 27.392,34.193 		"/>
	</g>
</g>
</svg>
